<?xml version="1.0" encoding="UTF-8"?>
<svg version="1.1" xmlns="http://www.w3.org/2000/svg" width="690" height="519">
<path d="M0 0 C227.7 0 455.4 0 690 0 C690 171.27 690 342.54 690 519 C462.3 519 234.6 519 0 519 C0 347.73 0 176.46 0 0 Z " fill="#FAF9F9" transform="translate(0,0)"/>
<path d="M0 0 C1.41271253 1.18855519 2.80878864 2.39716649 4.1875 3.625 C5.27417969 4.53765625 5.27417969 4.53765625 6.3828125 5.46875 C13.9093845 12.28724728 18.38601056 20.81445117 23.1875 29.625 C23.68797852 30.5432959 24.18845703 31.4615918 24.70410156 32.40771484 C26.88224842 36.41574663 29.05352341 40.42733621 31.21191406 44.44604492 C35.38785095 52.2097152 39.70748832 59.8802619 44.14208984 67.49902344 C46.92050238 72.29801085 49.48574311 77.15454869 51.93652344 82.12841797 C54.03343082 86.31322963 56.30339662 90.40115931 58.5625 94.5 C63.06003902 102.69766729 67.49858432 110.92521894 71.9006958 119.17437744 C78.18499088 130.95945791 78.18499088 130.95945791 84.6875 142.625 C90.84441835 153.4362021 96.66119269 164.43485211 102.48144531 175.4296875 C103.93752701 178.15681934 105.42324782 180.86303329 106.9296875 183.5625 C111.05648688 191.09086165 114.12599853 197.85074348 112.1875 206.625 C109.90216848 212.67007048 106.21182638 218.39628113 100.4453125 221.58984375 C94.63077225 224.1234888 88.33258108 224.7335682 82.171875 223.0859375 C73.3571821 219.59838509 68.65611459 212.99259225 64.625 204.75 C64.04621094 203.57695312 63.46742188 202.40390625 62.87109375 201.1953125 C61.80012195 198.92415653 60.77140256 196.63222668 59.80078125 194.31640625 C57.78419403 189.55389833 55.34381381 185.01183554 52.9375 180.4375 C52.41953857 179.44935303 51.90157715 178.46120605 51.36791992 177.44311523 C36.76330704 149.29818853 36.76330704 149.29818853 21.06396484 121.76416016 C18.1875 116.93981329 18.1875 116.93981329 18.1875 113.625 C17.5275 113.625 16.8675 113.625 16.1875 113.625 C15.78402344 112.79484375 15.38054687 111.9646875 14.96484375 111.109375 C8.08009179 97.08538778 0.61987901 83.36352003 -6.8125 69.625 C-7.35438965 68.62130371 -7.8962793 67.61760742 -8.45458984 66.58349609 C-11.52619074 60.90324598 -14.63974908 55.24936 -17.8125 49.625 C-18.77736328 47.89636719 -18.77736328 47.89636719 -19.76171875 46.1328125 C-23.76229396 39.35430979 -27.78164763 35.22014831 -35.375 32.8125 C-42.62581459 32.25474503 -48.67855572 32.35113809 -54.55859375 37.0078125 C-60.38681258 43.0110125 -63.77828994 50.79563387 -67.53955078 58.16650391 C-69.76462007 62.46386634 -72.10665629 66.69686822 -74.4375 70.9375 C-77.89263483 77.24158588 -81.32060339 83.55904421 -84.703125 89.90234375 C-85.03416229 90.52268997 -85.36519958 91.14303619 -85.70626831 91.78218079 C-87.3279809 94.82213266 -88.94664974 97.86361579 -90.56103516 100.9074707 C-93.74729154 106.88676204 -97.04156127 112.75573492 -100.56591797 118.54199219 C-101.99441401 120.92897383 -103.24581287 123.36191831 -104.4375 125.875 C-108.72005768 134.59584473 -113.47607562 143.06238633 -118.14648438 151.57958984 C-120.98806004 156.7738769 -123.80667245 161.98057251 -126.625 167.1875 C-127.17494629 168.20320068 -127.72489258 169.21890137 -128.29150391 170.26538086 C-131.11716777 175.48611897 -133.93778524 180.70950604 -136.75 185.9375 C-137.77083333 187.83333333 -138.79166667 189.72916667 -139.8125 191.625 C-140.32039063 192.57117188 -140.82828125 193.51734375 -141.3515625 194.4921875 C-153.30384199 216.61922799 -153.30384199 216.61922799 -160.8125 221.625 C-167.59034904 223.40504116 -174.85032526 223.35340362 -181.625 221.6875 C-187.49388878 217.88998373 -191.60586736 212.25535589 -193.8125 205.625 C-194.89835186 198.70585094 -192.99954496 193.66224777 -189.8125 187.625 C-189.19648007 186.43366329 -188.58060705 185.24225062 -187.96484375 184.05078125 C-183.32774171 175.15150106 -178.49531956 166.35633138 -173.67773438 157.55395508 C-169.51237779 149.93419373 -165.40571162 142.28366496 -161.3125 134.625 C-155.84919392 124.40480811 -150.33424035 114.21434831 -144.7734375 104.046875 C-141.60320443 98.24854624 -138.45705612 92.43728335 -135.3125 86.625 C-130.64585439 78.00186558 -125.96794818 69.38503354 -121.26391602 60.78222656 C-118.75503643 56.19328627 -116.25728324 51.59894601 -113.78125 46.9921875 C-87.27824965 -2.21671185 -87.27824965 -2.21671185 -58.80078125 -11.33984375 C-38.21199953 -16.83525043 -17.07639607 -12.74800401 0 0 Z " fill="#788891" transform="translate(267.8125,25.375)"/>
<path d="M0 0 C5.5763985 3.24098374 8.25541134 7.9424005 10 14 C11.68511428 22.73063517 7.97778419 29.44451824 4 37 C3.26516157 38.42684476 2.53081105 39.85394087 1.796875 41.28125 C-4.11027978 52.68439433 -10.29712761 63.93974178 -16.46777344 75.20166016 C-18.98442757 79.79788223 -21.49185028 84.39913332 -24 89 C-26.97417843 94.45443079 -29.94932603 99.90831975 -32.9296875 105.359375 C-42.08338915 122.10821615 -51.16849674 138.89477298 -60.125 155.75 C-95.14895523 221.46658977 -95.14895523 221.46658977 -120 230 C-138.50819533 234.99737918 -158.53692831 234.86808259 -175.57006836 225.46020508 C-193.07093068 215.09351102 -202.08346621 198.52496046 -211.34960938 181.09912109 C-213.5914139 176.88943667 -215.85824281 172.69341588 -218.12353516 168.49633789 C-222.30941875 160.73780791 -226.47916815 152.97059203 -230.6484375 145.203125 C-238.24462971 131.0580644 -238.24462971 131.0580644 -246 117 C-251.85689348 106.52535744 -257.51467686 95.94391935 -263.18994141 85.37011719 C-265.52593525 81.02077014 -267.86819222 76.67481473 -270.2109375 72.32910156 C-271.9380246 69.12402646 -273.66253272 65.91757402 -275.38671875 62.7109375 C-277.61444418 58.56888584 -279.84901785 54.43066642 -282.09083557 50.29623413 C-283.47775417 47.73657549 -284.86078772 45.17482951 -286.24319458 42.61273193 C-286.90706996 41.3844689 -287.57262144 40.15711012 -288.23995972 38.9307251 C-289.16959359 37.22183454 -290.09273242 35.50941561 -291.015625 33.796875 C-291.80888184 32.33266113 -291.80888184 32.33266113 -292.61816406 30.83886719 C-295.59415971 24.72493125 -297.47811298 18.62906041 -295.34765625 11.95703125 C-292.57467644 5.80411039 -288.29025338 0.75990297 -282.3125 -2.4375 C-274.04559773 -3.84131359 -267.27136012 -3.95734553 -259.9375 0.41796875 C-255.56259905 3.9902165 -252.87833173 8.67871099 -250.1875 13.5625 C-249.81351074 14.2337793 -249.43952148 14.90505859 -249.05419922 15.59667969 C-244.49733222 23.82600399 -240.08798456 32.13639774 -235.65771484 40.43432617 C-230.62819834 49.85161519 -225.50646137 59.21517061 -220.34472656 68.56054688 C-213.48788667 80.99946194 -206.72684768 93.49042362 -200 106 C-191.7675782 121.30687658 -183.52204603 136.60334431 -174.94458008 151.72021484 C-172.98757776 155.18618203 -171.12319926 158.67439503 -169.375 162.25 C-162.4411388 176.74639008 -162.4411388 176.74639008 -150.125 186.375 C-142.6321037 187.87357926 -137.04763913 187.43053478 -130.26953125 183.640625 C-126.28790566 180.76234144 -124.32713237 177.26640935 -122 173 C-121.30360979 171.77517252 -120.60555675 170.55128965 -119.90625 169.328125 C-112.99675584 157.13854408 -106.44943333 144.74126638 -99.82324219 132.39648438 C-90.12943495 114.33806897 -80.37480237 96.31456497 -70.54101562 78.33203125 C-67.02012001 71.89194181 -63.50685578 65.44774519 -60 59 C-59.14438477 57.42847168 -59.14438477 57.42847168 -58.27148438 55.82519531 C-52.18287975 44.62948245 -46.14210951 33.42855458 -40.5 22 C-30.62967699 2.10828761 -30.62967699 2.10828761 -20.5625 -3.3125 C-12.89497135 -5.36964183 -6.89044686 -3.51459034 0 0 Z " fill="#788890" transform="translate(600,16)"/>
<path d="M0 0 C1.85231483 -0.01511375 1.85231483 -0.01511375 3.74205017 -0.03053284 C7.11839442 -0.05410426 10.49418509 -0.06406277 13.87057328 -0.0659802 C15.98366728 -0.06811773 18.09670386 -0.07453204 20.20978355 -0.08247185 C27.59236692 -0.11019929 34.97478816 -0.1224808 42.35742188 -0.12011719 C49.22182569 -0.11831611 56.08552127 -0.14995347 62.94974595 -0.19734818 C68.8574233 -0.23667385 74.76487011 -0.25266474 80.67267722 -0.25075096 C84.19484276 -0.2499888 87.71637858 -0.25838412 91.23841286 -0.29028511 C95.17093777 -0.32493397 99.10250393 -0.31102858 103.03515625 -0.29296875 C104.19026703 -0.30982727 105.34537781 -0.32668579 106.53549194 -0.34405518 C114.15646956 -0.25531901 118.95487493 1.36564972 124.71166992 6.43579102 C128.32042883 10.59133158 127.97969416 14.16464774 127.71166992 19.43579102 C127.05166992 19.43579102 126.39166992 19.43579102 125.71166992 19.43579102 C125.57136353 20.46119995 125.57136353 20.46119995 125.42822266 21.50732422 C124.55390605 25.08055342 122.98834659 28.08314761 121.24682617 31.29125977 C120.89802399 31.94569565 120.5492218 32.60013153 120.18984985 33.2743988 C119.05771509 35.39420949 117.91621787 37.50880708 116.77416992 39.62329102 C115.98901655 41.08775546 115.20426874 42.55243742 114.41992188 44.01733398 C109.71714392 52.78529345 104.94989414 61.51571829 100.08276367 70.19360352 C97.33922142 75.0877401 94.64805316 80.01010018 91.96166992 84.93579102 C91.46658936 85.84345215 90.97150879 86.75111328 90.46142578 87.6862793 C87.04703335 93.95752343 83.66231066 100.24434075 80.28686523 106.53662109 C77.94701142 110.89427019 75.59798387 115.24690926 73.24487305 119.59741211 C72.29755247 121.35116195 71.35297013 123.10639781 70.4128418 124.86401367 C69.35792429 126.83238979 68.28822965 128.791695 67.21166992 130.74829102 C66.66510742 131.75504883 66.11854492 132.76180664 65.55541992 133.79907227 C62.95334412 137.52026118 59.81616445 140.38354375 55.71166992 142.43579102 C53.79370117 142.74438477 53.79370117 142.74438477 51.52416992 142.87329102 C50.78811523 142.93387695 50.05206055 142.99446289 49.29370117 143.05688477 C44.36363301 141.87098335 41.06056673 138.41250184 38.25341797 134.29882812 C36.80564132 131.79651418 35.46562156 129.25960055 34.14916992 126.68579102 C33.10753163 124.71442186 32.06586371 122.74306835 31.02416992 120.77172852 C30.4853418 119.73886719 29.94651367 118.70600586 29.39135742 117.6418457 C26.52572816 112.17215915 23.58226544 106.7444999 20.64916992 101.31079102 C20.05821533 100.21186523 19.46726074 99.11293945 18.85839844 97.98071289 C14.42523213 89.73763167 9.93127507 81.52969896 5.41088867 73.33422852 C2.06338226 67.26450692 -1.27408485 61.18914731 -4.57104492 55.09179688 C-7.37491446 49.90914885 -10.23375796 44.76567272 -13.15942383 39.65063477 C-14.45247693 37.34990092 -15.7454471 35.04912047 -17.03833008 32.74829102 C-17.6594165 31.68594238 -18.28050293 30.62359375 -18.92041016 29.52905273 C-22.64547385 22.83288876 -24.71238648 17.1525492 -23.28833008 9.43579102 C-18.70554877 -0.09028373 -9.16990823 -0.01073648 0 0 Z " fill="#C32C38" transform="translate(405.288330078125,22.564208984375)"/>
<path d="M0 0 C7.26581799 3.96200022 10.91213675 9.52827542 14.4375 16.8125 C17.82440525 23.6951235 21.32011288 30.51516259 24.875 37.3125 C25.39352539 38.30435303 25.91205078 39.29620605 26.44628906 40.31811523 C29.13397804 45.45247306 31.83169732 50.58140012 34.54199219 55.70385742 C35.72313038 57.94253217 36.89468964 60.18606889 38.06640625 62.4296875 C40.08749553 66.29221369 42.15068492 70.12997105 44.22926331 73.96170044 C45.81436824 76.89537857 47.37951402 79.83946674 48.94204712 82.78521729 C49.72214949 84.24576341 50.51022366 85.70208338 51.30673218 87.15374756 C59.84956978 102.7448938 59.84956978 102.7448938 58 112 C55.66415914 116.94120182 52.77844081 119.43285181 48 122 C44.61889859 122.57219981 41.29007609 122.54701571 37.8671875 122.51757812 C36.86157776 122.5245874 35.85596802 122.53159668 34.81988525 122.53881836 C31.5046404 122.55638508 28.19025314 122.54477977 24.875 122.53125 C22.56624183 122.53394528 20.25748476 122.537828 17.94873047 122.54284668 C13.11349667 122.54873996 8.27855874 122.5401839 3.44335938 122.52148438 C-2.75077872 122.49869535 -8.94422351 122.51181928 -15.13833618 122.53577423 C-19.9047568 122.55023654 -24.67101337 122.54562413 -29.43743896 122.53526306 C-31.7211719 122.532597 -34.00491978 122.53586128 -36.28863525 122.54518127 C-39.48188665 122.55535357 -42.67401931 122.53983507 -45.8671875 122.51757812 C-47.27940582 122.52972351 -47.27940582 122.52972351 -48.72015381 122.54211426 C-54.32123514 122.46988385 -57.56511398 121.75191702 -62 118 C-66.09823458 113.57822058 -66.55401603 109.90657428 -66.45947266 104.11889648 C-65.58789636 98.20264399 -62.48750325 93.40691552 -59.5 88.3125 C-58.20390941 86.01274337 -56.90963098 83.7119645 -55.6171875 81.41015625 C-54.67697754 79.75717529 -54.67697754 79.75717529 -53.71777344 78.07080078 C-51.54866278 74.19316095 -49.55879674 70.24876675 -47.625 66.25 C-45.28044227 61.45008895 -42.76647982 56.79643626 -40.0625 52.1875 C-36.96498733 46.8662866 -34.27134984 41.46174857 -31.6875 35.875 C-28.4193937 28.8525814 -24.98154316 21.94725429 -21.3125 15.125 C-20.87317139 14.28694824 -20.43384277 13.44889648 -19.98120117 12.58544922 C-15.60700534 4.5765887 -9.96144811 -1.86668117 0 0 Z " fill="#C32C38" transform="translate(231,77)"/>
<path d="M0 0 C4.87536403 3.44842822 8.03610654 8.02310765 9.5625 13.8125 C10.69942306 21.8574664 9.18568226 28.1305569 4.5625 34.8125 C1.34346475 38.31320083 -1.8692221 40.54285292 -6.70703125 41.05078125 C-12.51877736 41.2204021 -15.89730104 40.81219908 -20.4375 36.8125 C-26.16256555 30.61034565 -26.83050812 25.19284619 -26.69140625 16.9765625 C-26.11838022 9.83577656 -22.7259594 4.70235826 -17.375 0 C-11.71095829 -2.28971899 -5.71926452 -1.97574593 0 0 Z " fill="#78858D" transform="translate(340.4375,412.1875)"/>
<path d="M0 0 C19.9488491 0 19.9488491 0 26.54296875 6.52734375 C30.97054412 11.40139731 31.37274947 15.91691871 31.26953125 22.26953125 C30.72662268 27.76943114 29.31932127 33.00153345 25.0234375 36.703125 C23.0559371 37.94801616 21.10924141 39.01842662 19 40 C18.01 40.495 18.01 40.495 17 41 C11.39 41 5.78 41 0 41 C0 27.47 0 13.94 0 0 Z " fill="#818A93" transform="translate(472,411)"/>
<path d="M0 0 C19.95918367 0 19.95918367 0 25.546875 5.53125 C29.71911357 10.31291667 30.20594526 13.60436427 30.25 19.75 C30.270625 20.45382812 30.29125 21.15765625 30.3125 21.8828125 C30.35435355 27.51211481 29.19915446 31.566133 25.31640625 35.86328125 C24.73761719 36.34152344 24.15882813 36.81976563 23.5625 37.3125 C22.69818359 38.04919922 22.69818359 38.04919922 21.81640625 38.80078125 C15.55028731 42.93776731 6.80986221 41 0 41 C0 27.47 0 13.94 0 0 Z " fill="#7B888F" transform="translate(263,411)"/>
<path d="M0 0 C19.83333333 0 19.83333333 0 25.375 5.25 C27.47596251 8.80547501 27.50916975 10.92664198 27 15 C25.59539303 17.87305972 24.25489001 19.74510999 22 22 C21.01 22 20.02 22 19 22 C19.33322266 22.46897705 19.66644531 22.9379541 20.00976562 23.42114258 C21.51381579 25.54653374 23.00697793 27.67934931 24.5 29.8125 C25.02464844 30.55048828 25.54929687 31.28847656 26.08984375 32.04882812 C26.58613281 32.76103516 27.08242188 33.47324219 27.59375 34.20703125 C28.05458984 34.8616333 28.51542969 35.51623535 28.99023438 36.19067383 C30 38 30 38 30 41 C26.9375 41.625 26.9375 41.625 23 41 C20.16671246 37.97051739 18.10127274 34.56280155 16 31 C15.43796875 30.10667969 14.8759375 29.21335937 14.296875 28.29296875 C13 26 13 26 13 24 C11.35 24 9.7 24 8 24 C8 29.61 8 35.22 8 41 C5.36 41 2.72 41 0 41 C0 27.47 0 13.94 0 0 Z " fill="#7F8891" transform="translate(620,411)"/>
<path d="M0 0 C19.28571429 0 19.28571429 0 25 5 C26.7247707 8.44954139 26.36549311 12.22106229 26 16 C24.75 19 24.75 19 23 21 C20.8125 21.8125 20.8125 21.8125 19 22 C21.89526845 26.94113638 25.12248257 31.63123129 28.35546875 36.35546875 C30 39 30 39 30 41 C26.875 41.5 26.875 41.5 23 41 C19.85675758 38.09854546 17.80741198 34.40513786 15.69140625 30.72265625 C15.07072266 29.65337891 15.07072266 29.65337891 14.4375 28.5625 C14.08558594 27.90378906 13.73367187 27.24507813 13.37109375 26.56640625 C11.7804803 24.42857449 11.7804803 24.42857449 7 24 C7 29.61 7 35.22 7 41 C4.69 41 2.38 41 0 41 C0 27.47 0 13.94 0 0 Z " fill="#79848B" transform="translate(8,411)"/>
<path d="M0 0 C1.32 0 2.64 0 4 0 C5.78167797 1.90591062 7.24489359 3.70505648 8.75 5.8125 C9.18103027 6.39475342 9.61206055 6.97700684 10.05615234 7.5769043 C11.383371 9.37575696 12.69237843 11.18686987 14 13 C14.80892735 14.10487638 15.6187784 15.20907727 16.4296875 16.3125 C18.29845679 18.86626301 20.15097287 21.43190677 22 24 C22.33 16.08 22.66 8.16 23 0 C25.31 0 27.62 0 30 0 C30 13.86 30 27.72 30 42 C25.84989117 40.96247279 25.4924778 40.86399533 23.1953125 37.68359375 C22.69386719 37.00103516 22.19242188 36.31847656 21.67578125 35.61523438 C20.90814453 34.53725586 20.90814453 34.53725586 20.125 33.4375 C19.62097656 32.74591797 19.11695312 32.05433594 18.59765625 31.34179688 C17.6332314 30.01848758 16.67315776 28.69198609 15.71923828 27.36108398 C13.18407379 23.87946288 10.58409521 20.44546028 8 17 C7.67 24.92 7.34 32.84 7 41 C4.69 41 2.38 41 0 41 C0 27.47 0 13.94 0 0 Z " fill="#7B868E" transform="translate(75,411)"/>
<path d="M0 0 C1.32 0 2.64 0 4 0 C4.35191406 0.95777344 4.70382812 1.91554688 5.06640625 2.90234375 C8.35746033 11.79925023 11.83660594 20.59892696 15.484375 29.35546875 C15.98453125 30.55816406 16.4846875 31.76085937 17 33 C17.39703125 33.92425781 17.7940625 34.84851563 18.203125 35.80078125 C19 38 19 38 19 41 C16.36 41 13.72 41 11 41 C10.34 38.36 9.68 35.72 9 33 C4.05 33 -0.9 33 -6 33 C-6.66 35.64 -7.32 38.28 -8 41 C-10.31 41 -12.62 41 -15 41 C-14.60117178 35.1505194 -12.65116983 30.46726899 -10.32421875 25.11328125 C-9.10535514 22.24769336 -8.02969878 19.37529367 -7 16.4375 C-4.99563146 10.80226714 -2.55137674 5.40599089 0 0 Z " fill="#78838C" transform="translate(417,411)"/>
<path d="M0 0 C1.81640625 0.140625 1.81640625 0.140625 4 1 C5.52734375 3.484375 5.52734375 3.484375 6.9375 6.75 C7.44925781 7.92691406 7.96101563 9.10382813 8.48828125 10.31640625 C10.3383917 14.82455651 12.12463207 19.34994689 13.83203125 23.9140625 C15.23034503 27.60860393 16.75071768 31.2457533 18.30078125 34.87890625 C19 37 19 37 19 41 C16.69 41 14.38 41 12 41 C10.23537317 37.91190305 10 36.76687864 10 33 C4.72 33 -0.56 33 -6 33 C-6.33 34.98 -6.66 36.96 -7 39 C-7.33 39.66 -7.66 40.32 -8 41 C-10.31 41 -12.62 41 -15 41 C-13.88275295 34.80435727 -12.06702751 29.70584531 -9.36328125 24.03515625 C-7.33572485 19.52108369 -5.76361584 14.8655849 -4.13671875 10.1953125 C-2.89934552 6.71706061 -1.52082702 3.36182815 0 0 Z " fill="#79848D" transform="translate(239,411)"/>
<path d="M0 0 C8.58 0 17.16 0 26 0 C26 2.31 26 4.62 26 7 C20.06 7 14.12 7 8 7 C8 9.97 8 12.94 8 16 C12.29 16 16.58 16 21 16 C21 18.31 21 20.62 21 23 C16.38 23 11.76 23 7 23 C7 26.96 7 30.92 7 35 C13.27 35 19.54 35 26 35 C26 36.98 26 38.96 26 41 C17.42 41 8.84 41 0 41 C0 27.47 0 13.94 0 0 Z " fill="#808A92" transform="translate(163,411)"/>
<path d="M0 0 C8.58 0 17.16 0 26 0 C26 2.31 26 4.62 26 7 C20.06 7 14.12 7 8 7 C8 10.3 8 13.6 8 17 C12.29 17 16.58 17 21 17 C21 18.98 21 20.96 21 23 C16.71 23 12.42 23 8 23 C8 26.96 8 30.92 8 35 C13.94 35 19.88 35 26 35 C26 36.98 26 38.96 26 41 C17.42 41 8.84 41 0 41 C0 27.47 0 13.94 0 0 Z " fill="#808B92" transform="translate(113,411)"/>
<path d="M0 0 C8.58 0 17.16 0 26 0 C26 2.31 26 4.62 26 7 C19.73 7 13.46 7 7 7 C7 10.3 7 13.6 7 17 C11.29 17 15.58 17 20 17 C20 18.98 20 20.96 20 23 C15.71 23 11.42 23 7 23 C7 26.96 7 30.92 7 35 C13.27 35 19.54 35 26 35 C26 36.98 26 38.96 26 41 C17.42 41 8.84 41 0 41 C0 27.47 0 13.94 0 0 Z " fill="#7C868E" transform="translate(43,411)"/>
<path d="M0 0 C8.58 0 17.16 0 26 0 C26 2.31 26 4.62 26 7 C19.73 7 13.46 7 7 7 C7 10.3 7 13.6 7 17 C11.29 17 15.58 17 20 17 C20 18.65 20 20.3 20 22 C15.71 22 11.42 22 7 22 C7 26.29 7 30.58 7 35 C13.27 35 19.54 35 26 35 C26 36.98 26 38.96 26 41 C17.42 41 8.84 41 0 41 C0 27.47 0 13.94 0 0 Z " fill="#7C878F" transform="translate(509,411)"/>
<path d="M0 0 C8.91 0 17.82 0 27 0 C26.22031521 3.89842397 25.70338752 5.94515683 23.92578125 9.2578125 C23.50796387 10.04373779 23.09014648 10.82966309 22.65966797 11.6394043 C21.99281982 12.86977417 21.99281982 12.86977417 21.3125 14.125 C20.86277832 14.96651611 20.41305664 15.80803223 19.94970703 16.67504883 C18.64028567 19.12063419 17.32195713 21.56117248 16 24 C15.6508252 24.64598145 15.30165039 25.29196289 14.94189453 25.95751953 C13.30738342 28.97894011 11.65719091 31.99089019 10 35 C15.61 35 21.22 35 27 35 C27 36.98 27 38.96 27 41 C18.09 41 9.18 41 0 41 C0.72414901 37.37925496 1.13981861 35.3441307 2.70703125 32.2578125 C3.04669922 31.58363281 3.38636719 30.90945313 3.73632812 30.21484375 C4.09146484 29.52519531 4.44660156 28.83554687 4.8125 28.125 C5.32780273 27.10212891 5.32780273 27.10212891 5.85351562 26.05859375 C7.51734447 22.78088214 9.23584083 19.55044255 11.07421875 16.3671875 C12.82563882 13.30486681 14.42232574 10.15534851 16 7 C10.72 7 5.44 7 0 7 C0 4.69 0 2.38 0 0 Z " fill="#7D8891" transform="translate(540,411)"/>
<path d="M0 0 C2.64 0 5.28 0 8 0 C17 20.13934426 17 20.13934426 17 28 C17.66 28 18.32 28 19 28 C19.20625 26.700625 19.4125 25.40125 19.625 24.0625 C20.65424568 18.84865694 22.29174667 13.93576316 24.0625 8.9375 C24.3320752 8.1751001 24.60165039 7.4127002 24.87939453 6.62719727 C26.86103096 1.13896904 26.86103096 1.13896904 28 0 C30.67058851 -0.14115161 33.32432238 -0.04247107 36 0 C34.40531835 4.93308061 32.55609113 9.72338068 30.60205078 14.52392578 C29.00455819 18.46111305 27.46101302 22.41219547 25.96875 26.390625 C25.44788818 27.75453369 25.44788818 27.75453369 24.91650391 29.14599609 C24.22940637 30.9463656 23.55430813 32.75136659 22.89208984 34.56103516 C22.41570068 35.79539307 22.41570068 35.79539307 21.9296875 37.0546875 C21.51565674 38.16046143 21.51565674 38.16046143 21.09326172 39.28857422 C20 41 20 41 17.87939453 41.74658203 C17.25919434 41.83020996 16.63899414 41.91383789 16 42 C13.62473636 37.50171312 11.82295046 32.92979473 10.1875 28.125 C7.86195346 21.40773975 5.43484279 14.73771928 2.91674805 8.09033203 C1.89996551 5.4049744 0.90817398 2.72452194 0 0 Z " fill="#77848D" transform="translate(369,411)"/>
<path d="M0 0 C3.40015363 1.88093605 4.64631496 3.25894564 6.3125 6.75 C7.42011481 11.9859973 7.64009668 16.15083183 5.875 21.25 C3.55132866 24.6580513 1.74154431 26.23512061 -2 28 C-4.88987018 28.27840753 -7.27689227 28.01608497 -10 27 C-14.35402974 22.75761205 -15.16144938 19.04313293 -15.25 13.125 C-15.28867187 11.58199219 -15.28867187 11.58199219 -15.328125 10.0078125 C-14.95207858 6.5607203 -14.06101514 4.76407171 -12 2 C-7.96379315 -0.69080456 -4.73994236 -0.66642423 0 0 Z " fill="#F7F8F8" transform="translate(447,481)"/>
<path d="M0 0 C3.52575328 2.19380204 5.50160561 4.15543546 7 8 C7.70357112 14.08033567 8.33796035 20.89104838 5.0625 26.3125 C2.82777749 28.8146252 0.77584392 29.63201943 -2.5 30.25 C-6.21246993 30.3984988 -6.86371735 30.10221199 -10 27.75 C-14.39317562 21.70938353 -13.78492761 14.14736967 -13 7 C-10.41870959 0.9984998 -6.55186467 -1.31037293 0 0 Z " fill="#F8FAFA" transform="translate(335,417)"/>
<path d="M0 0 C1.44826172 -0.02126953 1.44826172 -0.02126953 2.92578125 -0.04296875 C5.70269158 0.18876776 7.32223141 0.76609156 9.6875 2.1875 C9.3575 4.1675 9.0275 6.1475 8.6875 8.1875 C8.1925 8.0225 7.6975 7.8575 7.1875 7.6875 C3.65305911 6.98061182 0.29059299 7.12744845 -3.3125 7.1875 C-4.17224801 9.48044488 -4.17224801 9.48044488 -4.3125 12.1875 C-2.09100881 15.31778304 1.00968265 17.06938218 4.1875 19.125 C7.73541064 21.46884212 10.60213887 23.37944924 12.6875 27.1875 C12.99174857 29.94636418 12.87672283 32.39646329 12.6875 35.1875 C12.0275 35.1875 11.3675 35.1875 10.6875 35.1875 C10.48125 35.785625 10.275 36.38375 10.0625 37 C8.06640963 40.17559831 6.20150008 40.90968179 2.6875 42.1875 C-2.36193097 42.76533981 -6.72230237 42.55663426 -11.3125 40.1875 C-10.9825 37.8775 -10.6525 35.5675 -10.3125 33.1875 C-9.631875 33.5175 -8.95125 33.8475 -8.25 34.1875 C-4.77400705 35.37081675 -1.96286451 35.39412441 1.6875 35.1875 C2.6775 34.6925 2.6775 34.6925 3.6875 34.1875 C4.4430432 31.4462435 4.4430432 31.4462435 3.6875 28.1875 C0.93410851 25.78710742 -2.17589757 24.04214097 -5.3125 22.1875 C-10.1565367 18.65538991 -10.1565367 18.65538991 -11.3125 15.1875 C-11.71406452 12.12413635 -11.8109547 9.24254492 -11.3125 6.1875 C-8.875 3.1875 -8.875 3.1875 -6.3125 1.1875 C-4.59154777 -0.53345223 -2.34086086 0.01550239 0 0 Z " fill="#7D878F" transform="translate(601.3125,410.8125)"/>
<path d="M0 0 C11.56756757 0 11.56756757 0 16 4 C18.91051059 7.4926127 19.48216583 10.46336713 19.28515625 15.01171875 C18.67121354 19.29249735 16.73231542 22.13037543 14 25.375 C11 27 11 27 0 27 C0 18.09 0 9.18 0 0 Z " fill="#F2F3F4" transform="translate(363,481)"/>
<path d="M0 0 C2.64 0 5.28 0 8 0 C8 11.55 8 23.1 8 35 C13.94 35 19.88 35 26 35 C26 36.98 26 38.96 26 41 C17.42 41 8.84 41 0 41 C0 27.47 0 13.94 0 0 Z " fill="#828C93" transform="translate(195,411)"/>
<path d="M0 0 C2.31 0 4.62 0 7 0 C7 11.55 7 23.1 7 35 C13.27 35 19.54 35 26 35 C26 36.98 26 38.96 26 41 C17.42 41 8.84 41 0 41 C0 27.47 0 13.94 0 0 Z " fill="#79848E" transform="translate(441,411)"/>
<path d="M0 0 C2.31 0 4.62 0 7 0 C7 11.22 7 22.44 7 34 C13.27 34 19.54 34 26 34 C26 35.98 26 37.96 26 40 C17.42 40 8.84 40 0 40 C0 26.8 0 13.6 0 0 Z " fill="#7C878F" transform="translate(655,412)"/>
<path d="M0 0 C9 0 9 0 11.19140625 1.109375 C15.1795196 5.88147644 15.78541753 9.95206689 15.4609375 16.1171875 C14.69100486 20.93252895 13.10542395 24.330181 9.1875 27.4375 C7 28 7 28 0 28 C0 18.76 0 9.52 0 0 Z " fill="#F9FAFB" transform="translate(271,418)"/>
<path d="M0 0 C8 0 8 0 10.875 1.625 C14.8711839 6.09132318 15.45775365 10.93820264 15.3203125 16.75 C14.69262689 21.15910869 12.71894166 24.63670144 9.1875 27.4375 C7 28 7 28 0 28 C0 18.76 0 9.52 0 0 Z " fill="#F9FAFB" transform="translate(480,418)"/>
<path d="M0 0 C12 0 12 0 15.25 1.5625 C17 4 17 4 17.625 7.4375 C16.8610418 11.79206173 15.35495858 13.23215917 12 16 C12.5053125 16.62648438 13.010625 17.25296875 13.53125 17.8984375 C14.50578125 19.12433594 14.50578125 19.12433594 15.5 20.375 C16.47453125 21.59316406 16.47453125 21.59316406 17.46875 22.8359375 C19 25 19 25 19 27 C17.68 27 16.36 27 15 27 C13.21875 24.62890625 13.21875 24.62890625 11.5 21.5625 C9.8693142 18.53390327 9.8693142 18.53390327 8 16 C6.68 15.67 5.36 15.34 4 15 C4 19.29 4 23.58 4 28 C2.68 28 1.36 28 0 28 C0 18.76 0 9.52 0 0 Z " fill="#858B90" transform="translate(237,481)"/>
<path d="M0 0 C2.31 0 4.62 0 7 0 C8 1 8 1 8.11352539 4.78540039 C8.11336622 6.47282729 8.10766917 8.16025905 8.09765625 9.84765625 C8.0962413 10.7340831 8.09482635 11.62050995 8.09336853 12.53379822 C8.08775215 15.37673254 8.07519691 18.21958931 8.0625 21.0625 C8.05748711 22.98502491 8.05292384 24.90755104 8.04882812 26.83007812 C8.03777741 31.55341549 8.02050183 36.27669458 8 41 C5.36 41 2.72 41 0 41 C0 27.47 0 13.94 0 0 Z " fill="#808D94" transform="translate(300,411)"/>
<path d="M0 0 C0.99 0.33 1.98 0.66 3 1 C3.77392498 2.85069016 4.53101528 4.71115523 5.1796875 6.609375 C6.05935508 9.17297766 7.04689575 11.67481985 8.0625 14.1875 C8.38347656 14.98542969 8.70445312 15.78335937 9.03515625 16.60546875 C9.70380222 18.26490186 10.40123483 19.9129141 11.12109375 21.55078125 C12 24 12 24 12 28 C10.68 27.67 9.36 27.34 8 27 C7.505 24.525 7.505 24.525 7 22 C3.37 22 -0.26 22 -4 22 C-4.66 23.98 -5.32 25.96 -6 28 C-7.32 28 -8.64 28 -10 28 C-7.91037654 21.59162763 -5.6602938 15.25546703 -3.3125 8.9375 C-2.99216797 8.07189453 -2.67183594 7.20628906 -2.34179688 6.31445312 C-1.56248716 4.20915373 -0.78187196 2.10434886 0 0 Z " fill="#80878F" transform="translate(176,481)"/>
<path d="M0 0 C3.40015363 1.88093605 4.64631496 3.25894564 6.3125 6.75 C7.42011481 11.9859973 7.64009668 16.15083183 5.875 21.25 C3.55132866 24.6580513 1.74154431 26.23512061 -2 28 C-4.88987018 28.27840753 -7.27689227 28.01608497 -10 27 C-14.35402974 22.75761205 -15.16144938 19.04313293 -15.25 13.125 C-15.28867187 11.58199219 -15.28867187 11.58199219 -15.328125 10.0078125 C-14.95207858 6.5607203 -14.06101514 4.76407171 -12 2 C-7.96379315 -0.69080456 -4.73994236 -0.66642423 0 0 Z M-12 7 C-12.94346401 11.67177349 -13.00080197 16.69176737 -11.08203125 21.1171875 C-9.02399177 23.90120207 -7.28852814 24.93522838 -3.9375 25.6875 C-0.91487949 25.19157195 -0.91487949 25.19157195 1.375 23.1875 C3.99799813 18.04238827 4.11862887 12.46841142 2.33984375 6.953125 C1.39402473 5.03661369 1.39402473 5.03661369 -1 3 C-6.32066893 2.04988055 -8.70697469 2.77926218 -12 7 Z " fill="#747B84" transform="translate(447,481)"/>
<path d="M0 0 C11.56756757 0 11.56756757 0 16 4 C18.91051059 7.4926127 19.48216583 10.46336713 19.28515625 15.01171875 C18.67121354 19.29249735 16.73231542 22.13037543 14 25.375 C11 27 11 27 0 27 C0 18.09 0 9.18 0 0 Z M3 3 C3 10.26 3 17.52 3 25 C8.71708558 25.54170133 8.71708558 25.54170133 11.8125 23.1875 C14.93943395 20.06056605 15.1895555 17.38276232 15.3125 13.125 C15.2571929 9.68590382 15.0193169 8.04024354 13.5 4.875 C10.45416667 2.2 10.45416667 2.2 3 3 Z " fill="#656B71" transform="translate(363,481)"/>
<path d="M0 0 C0 0.99 0 1.98 0 3 C-2.31 3.33 -4.62 3.66 -7 4 C-7.21282289 6.84050318 -7.21282289 6.84050318 -6 10 C-3.18073747 12.05859358 -0.16977345 13.5527903 3 15 C3.76840982 22.99146211 3.76840982 22.99146211 1 26.625 C-3.16142377 28.53231923 -5.55419948 27.90423061 -10 27 C-10.33 25.68 -10.66 24.36 -11 23 C-8.03 23.33 -5.06 23.66 -2 24 C-1.34 22.02 -0.68 20.04 0 18 C-0.66 18 -1.32 18 -2 18 C-2 17.34 -2 16.68 -2 16 C-2.9075 15.773125 -3.815 15.54625 -4.75 15.3125 C-8.55622711 13.77536982 -9.97875096 12.5573983 -12 9 C-12 5.51212968 -11.66872079 3.77160091 -9.375 1.125 C-6.16894306 -0.39365855 -3.49954689 -0.20189694 0 0 Z " fill="#C1C4C7" transform="translate(515,481)"/>
<path d="M0 0 C1.60875 -0.04125 3.2175 -0.0825 4.875 -0.125 C5.77992187 -0.14820313 6.68484375 -0.17140625 7.6171875 -0.1953125 C10 0 10 0 12 2 C12.3125 5.5 12.3125 5.5 12 9 C7.7975546 11.80163026 4.99895065 11.14489712 0 11 C0 7.37 0 3.74 0 0 Z " fill="#F5F7F7" transform="translate(15,418)"/>
<path d="M0 0 C1.423125 -0.061875 2.84625 -0.12375 4.3125 -0.1875 C5.51326172 -0.23970703 5.51326172 -0.23970703 6.73828125 -0.29296875 C9 0 9 0 10.76953125 1.35546875 C12 3 12 3 12.375 5.5 C11.92687984 8.48746775 11.36602774 9.1876123 9 11 C6.73828125 11.29296875 6.73828125 11.29296875 4.3125 11.1875 C2.889375 11.125625 1.46625 11.06375 0 11 C0 7.37 0 3.74 0 0 Z " fill="#F7F8F8" transform="translate(628,418)"/>
<path d="M0 0 C0.99 0.99 0.99 0.99 2 2 C-1.11697949 4.07798633 -1.77668235 4.24903092 -5.30900574 4.24050903 C-6.18820175 4.24325836 -7.06739777 4.24600769 -7.97323608 4.24884033 C-9.41577255 4.2380545 -9.41577255 4.2380545 -10.88745117 4.22705078 C-11.90226059 4.22734283 -12.91707001 4.22763489 -13.96263123 4.22793579 C-17.32283018 4.22654049 -20.68280844 4.21096972 -24.04296875 4.1953125 C-26.37038553 4.19158309 -28.69780387 4.18873578 -31.02522278 4.18673706 C-37.15567345 4.17909498 -43.28602959 4.1594415 -49.41644287 4.1373291 C-55.6701937 4.11688308 -61.92395977 4.107738 -68.17773438 4.09765625 C-80.45186448 4.07619621 -92.72592439 4.04205328 -105 4 C-105 3.67 -105 3.34 -105 3 C-103.78335159 2.98969254 -102.56670319 2.97938507 -101.31318665 2.96876526 C-89.85081707 2.87103469 -78.38850182 2.76830084 -66.92622089 2.66066074 C-61.03327096 2.6054822 -55.14031602 2.55207024 -49.24731445 2.50268555 C-43.56090687 2.45496733 -37.87455904 2.40262174 -32.18822289 2.34705925 C-30.01811395 2.32666951 -27.84798866 2.30795088 -25.67785072 2.29092598 C-22.63974722 2.26680718 -19.60175603 2.23676274 -16.5637207 2.20532227 C-15.21612671 2.19668907 -15.21612671 2.19668907 -13.84130859 2.18788147 C-6.71105747 2.16644174 -6.71105747 2.16644174 0 0 Z " fill="#AE2936" transform="translate(280,195)"/>
<path d="M0 0 C0.93846803 2.51777976 1.13196506 3.6559074 0.15478516 6.20385742 C-0.29590332 6.99638916 -0.7465918 7.7889209 -1.2109375 8.60546875 C-1.71012695 9.49927246 -2.20931641 10.39307617 -2.72363281 11.31396484 C-3.26858398 12.26223145 -3.81353516 13.21049805 -4.375 14.1875 C-5.482731 16.16222211 -6.58949034 18.13748958 -7.6953125 20.11328125 C-8.2512207 21.09893066 -8.80712891 22.08458008 -9.37988281 23.10009766 C-11.73882888 27.3224547 -14.00136823 31.59314927 -16.25 35.875 C-16.6320459 36.59969482 -17.0140918 37.32438965 -17.40771484 38.07104492 C-18.2732059 39.71329499 -19.1368462 41.35652029 -20 43 C-20.66 41.68 -21.32 40.36 -22 39 C-21.34 38.34 -20.68 37.68 -20 37 C-19.27816681 35.29384883 -18.55845509 33.58669335 -17.859375 31.87109375 C-16.56134388 29.04492599 -14.72210953 26.58316429 -13 24 C-12.23060319 21.77397385 -12.23060319 21.77397385 -12 20 C-11.34 20 -10.68 20 -10 20 C-9.67 18.02 -9.34 16.04 -9 14 C-8.34 14 -7.68 14 -7 14 C-6.8865625 13.43667969 -6.773125 12.87335937 -6.65625 12.29296875 C-5.91686132 9.70950948 -4.82708336 7.64646929 -3.5 5.3125 C-3.0565625 4.52488281 -2.613125 3.73726562 -2.15625 2.92578125 C-1 1 -1 1 0 0 Z " fill="#B62D35" transform="translate(526,49)"/>
<path d="M0 0 C-0.721875 0.53625 -1.44375 1.0725 -2.1875 1.625 C-5.86029227 4.72646902 -9.0938981 7.76494864 -10.9375 12.3125 C-11.07522412 18.2346371 -9.85867212 23.43975113 -6 28 C-6 28.99 -6 29.98 -6 31 C-5.34 31 -4.68 31 -4 31 C-4.495 32.485 -4.495 32.485 -5 34 C-10.58063761 26.77701258 -15.06886199 19.86133477 -14.53125 10.453125 C-12.93162026 3.06659945 -7.21616788 -0.32071857 0 0 Z " fill="#B62F3C" transform="translate(396,24)"/>
<path d="M0 0 C2.89304519 3.49160627 3.47246407 6.47769256 3.29296875 11.0078125 C2.62911785 15.52199859 0.42643919 19.06305212 -3 22 C-4.32 21.34 -5.64 20.68 -7 20 C-6.360625 19.566875 -5.72125 19.13375 -5.0625 18.6875 C-2.73253997 17.08760823 -2.73253997 17.08760823 -2 14 C-1.85747599 12.35823305 -1.77973245 10.71017345 -1.75 9.0625 C-1.72421875 8.20785156 -1.6984375 7.35320312 -1.671875 6.47265625 C-2.07327382 3.44782941 -2.8403504 2.14032388 -5 0 C-7.0316566 -0.68850829 -7.0316566 -0.68850829 -9.1875 -0.75 C-10.445625 -0.8325 -11.70375 -0.915 -13 -1 C-13 -1.33 -13 -1.66 -13 -2 C-4.23897912 -3.63341067 -4.23897912 -3.63341067 0 0 Z " fill="#717780" transform="translate(379,485)"/>
<path d="M0 0 C1 3 1 3 0.15478516 5.19799805 C-0.29590332 6.04402588 -0.7465918 6.89005371 -1.2109375 7.76171875 C-1.70996582 8.70901855 -2.20899414 9.65631836 -2.72314453 10.63232422 C-3.26825684 11.64053223 -3.81336914 12.64874023 -4.375 13.6875 C-4.92140137 14.71375488 -5.46780273 15.74000977 -6.03076172 16.79736328 C-7.67438205 19.87201305 -9.33414433 22.9373496 -11 26 C-11.46986328 26.86802246 -11.93972656 27.73604492 -12.42382812 28.63037109 C-13.6480241 30.88400459 -14.88254012 33.13139309 -16.125 35.375 C-16.49028809 36.03975342 -16.85557617 36.70450684 -17.23193359 37.3894043 C-19.76141412 41.88070706 -19.76141412 41.88070706 -22 43 C-22.495 41.515 -22.495 41.515 -23 40 C-22.35611328 39.46439453 -22.35611328 39.46439453 -21.69921875 38.91796875 C-19.38645828 36.3074736 -18.22898473 33.49172129 -16.8125 30.3125 C-16.28269531 29.13300781 -15.75289063 27.95351562 -15.20703125 26.73828125 C-14.80871094 25.83464844 -14.41039062 24.93101562 -14 24 C-13.34 24 -12.68 24 -12 24 C-11.896875 23.29875 -11.79375 22.5975 -11.6875 21.875 C-10.90640997 18.60862353 -9.57941257 15.9528148 -8 13 C-7.34 13 -6.68 13 -6 13 C-5.896875 12.278125 -5.79375 11.55625 -5.6875 10.8125 C-4.66272672 6.62024566 -2.37287483 3.55931224 0 0 Z " fill="#B42830" transform="translate(494,108)"/>
<path d="M0 0 C0.5775 0.2475 1.155 0.495 1.75 0.75 C0.42072885 3.76517603 -0.95597245 5.54668561 -3.4375 7.6875 C-7.75544559 11.80712659 -10.09329102 16.7649755 -12.671875 22.0546875 C-14.25 24.75 -14.25 24.75 -17.25 25.75 C-15.5035798 21.02715399 -13.21228523 16.63674395 -10.875 12.1875 C-10.48828125 11.43275391 -10.1015625 10.67800781 -9.703125 9.90039062 C-4.25601023 -0.47289003 -4.25601023 -0.47289003 0 0 Z " fill="#C02530" transform="translate(221.25,79.25)"/>
<path d="M0 0 C0.66 0 1.32 0 2 0 C3.75734451 4.97361654 5.32584613 9.7415998 6 15 C2.7 15 -0.6 15 -4 15 C-3.34728444 11.48294042 -2.48606976 8.10674923 -1.4375 4.6875 C-1.16808594 3.80449219 -0.89867187 2.92148437 -0.62109375 2.01171875 C-0.41613281 1.34785156 -0.21117187 0.68398438 0 0 Z " fill="#EBEDEE" transform="translate(240,424)"/>
<path d="M0 0 C2.92586433 1.46293216 3.05946588 3.40270098 4.125 6.4375 C4.47820312 7.42621094 4.83140625 8.41492188 5.1953125 9.43359375 C6 12 6 12 6 14 C2.37 14 -1.26 14 -5 14 C-2.05357143 3.82142857 -2.05357143 3.82142857 0 0 Z " fill="#ECEEEF" transform="translate(418,425)"/>
<path d="M0 0 C0.99 0 1.98 0 3 0 C3 8.91 3 17.82 3 27 C2.01 27 1.02 27 0 27 C0 18.09 0 9.18 0 0 Z " fill="#67707B" transform="translate(307,481)"/>
<path d="M0 0 C6.39075249 -0.36174071 6.39075249 -0.36174071 9 1.1875 C10 3 10 3 9.75 5.625 C9 8 9 8 8 9 C5.32941149 9.14115161 2.67567762 9.04247107 0 9 C0 6.03 0 3.06 0 0 Z " fill="#F2F3F3" transform="translate(241,484)"/>
<path d="M0 0 C0.33 0 0.66 0 1 0 C1.18175781 0.68707031 1.36351562 1.37414062 1.55078125 2.08203125 C1.80214844 2.98308594 2.05351562 3.88414062 2.3125 4.8125 C2.55613281 5.70582031 2.79976563 6.59914063 3.05078125 7.51953125 C4.05158133 10.13479071 4.71725731 11.39362551 7 13 C9.28330101 13.36146457 9.28330101 13.36146457 11.6875 13.1875 C12.89986328 13.14689453 12.89986328 13.14689453 14.13671875 13.10546875 C14.75160156 13.07066406 15.36648438 13.03585937 16 13 C16 13.66 16 14.32 16 15 C12.65470265 17.36958562 9.7907383 17.21428078 5.90234375 16.61328125 C2.8180288 15.61895384 1.61131416 13.70700779 0 11 C-1.16461426 7.50615721 -1.13568319 4.66344611 -1 1 C-0.67 0.67 -0.34 0.34 0 0 Z " fill="#676F77" transform="translate(433,492)"/>
<path d="M0 0 C3.3 0.33 6.6 0.66 10 1 C10 1.33 10 1.66 10 2 C7.69 2.33 5.38 2.66 3 3 C2.67 10.92 2.34 18.84 2 27 C1.34 27 0.68 27 0 27 C0 18.09 0 9.18 0 0 Z " fill="#626F79" transform="translate(238,481)"/>
<path d="M0 0 C0.33 0 0.66 0 1 0 C0.88590407 1.45922693 0.75834456 2.91740598 0.625 4.375 C0.55539063 5.18710937 0.48578125 5.99921875 0.4140625 6.8359375 C0 9 0 9 -2 11 C-2.34541851 13.33157492 -2.67794257 15.66508361 -3 18 C-4.0625 20.4375 -4.0625 20.4375 -5 22 C-6.32 22 -7.64 22 -9 22 C-2.97560976 2.97560976 -2.97560976 2.97560976 0 0 Z " fill="#6F7782" transform="translate(175,487)"/>
<path d="M0 0 C0.99 0 1.98 0 3 0 C3.60235294 7.22823529 3.60235294 7.22823529 1 10.5625 C-3.16598633 12.55870178 -5.51848492 11.91149459 -10 11 C-10.33 9.68 -10.66 8.36 -11 7 C-10.36191406 7.08378906 -9.72382813 7.16757812 -9.06640625 7.25390625 C-7.82697266 7.40666016 -7.82697266 7.40666016 -6.5625 7.5625 C-5.73878906 7.66691406 -4.91507812 7.77132813 -4.06640625 7.87890625 C-3.38449219 7.91886719 -2.70257812 7.95882813 -2 8 C-1.67 7.67 -1.34 7.34 -1 7 C-1 6.01 -1 5.02 -1 4 C-1 1 -1 1 0 0 Z " fill="#767C85" transform="translate(515,497)"/>
<path d="M0 0 C1.51400391 0.01740234 1.51400391 0.01740234 3.05859375 0.03515625 C4.07050781 0.04417969 5.08242187 0.05320312 6.125 0.0625 C7.29869141 0.07990234 7.29869141 0.07990234 8.49609375 0.09765625 C8.49609375 1.74765625 8.49609375 3.39765625 8.49609375 5.09765625 C4.86609375 5.09765625 1.23609375 5.09765625 -2.50390625 5.09765625 C-2.83390625 3.77765625 -3.16390625 2.45765625 -3.50390625 1.09765625 C-2.50390625 0.09765625 -2.50390625 0.09765625 0 0 Z " fill="#697680" transform="translate(174.50390625,427.90234375)"/>
<path d="M0 0 C1.90318884 2.85478326 2.4619099 4.41941308 3.125 7.6875 C3.29257813 8.49574219 3.46015625 9.30398438 3.6328125 10.13671875 C3.75398437 10.75160156 3.87515625 11.36648438 4 12 C1.36 12 -1.28 12 -4 12 C-3.33989524 9.15449988 -2.48275034 6.47674001 -1.4375 3.75 C-1.16808594 3.04359375 -0.89867187 2.3371875 -0.62109375 1.609375 C-0.41613281 1.07828125 -0.21117187 0.5471875 0 0 Z " fill="#E7E9EA" transform="translate(177,488)"/>
<path d="M0 0 C0.66 0.33 1.32 0.66 2 1 C-4.27856403 11.41974456 -4.27856403 11.41974456 -10 14 C-13.03417654 14.29395142 -15.96419908 14.24286407 -19 14 C-19 13.67 -19 13.34 -19 13 C-16.36 13 -13.72 13 -11 13 C-11 12.34 -11 11.68 -11 11 C-6.61538462 8 -6.61538462 8 -4 8 C-3.71125 7.05125 -3.4225 6.1025 -3.125 5.125 C-2 2 -2 2 0 0 Z " fill="#BA434A" transform="translate(471,151)"/>
<path d="M0 0 C-0.70125 0.556875 -1.4025 1.11375 -2.125 1.6875 C-8.29874156 6.57965885 -8.29874156 6.57965885 -14 12 C-13.49572053 7.58755464 -11.98672249 5.25025683 -9 2 C-5.5647952 -0.29013653 -4.014669 -0.17842973 0 0 Z " fill="#BC3C49" transform="translate(396,24)"/>
<path d="M0 0 C0.33 0 0.66 0 1 0 C0.69721618 6.81263596 -2.12741878 12.43196033 -6 18 C-6.99 18.33 -7.98 18.66 -9 19 C-7.39369175 14.75707468 -5.4231838 10.72974893 -3.375 6.6875 C-3.05015625 6.04232422 -2.7253125 5.39714844 -2.390625 4.73242188 C-1.59558044 3.15402459 -0.79804366 1.57688306 0 0 Z " fill="#BB3D49" transform="translate(213,86)"/>
<path d="M0 0 C3.52139964 4.24996508 3.26853954 7.71872247 3 13 C2.67 13 2.34 13 2 13 C1.67 9.7 1.34 6.4 1 3 C0.01 3.33 -0.98 3.66 -2 4 C-2.33 3.360625 -2.66 2.72125 -3 2.0625 C-6.02329832 -1.0552764 -8.73656724 -0.72043064 -13 -1 C-13 -1.33 -13 -1.66 -13 -2 C-4.23897912 -3.63341067 -4.23897912 -3.63341067 0 0 Z " fill="#7B8086" transform="translate(379,485)"/>
<path d="M0 0 C0 0.99 0 1.98 0 3 C-1.670625 3.12375 -1.670625 3.12375 -3.375 3.25 C-7.05753944 3.57873787 -7.05753944 3.57873787 -8.4375 6.0625 C-8.623125 6.701875 -8.80875 7.34125 -9 8 C-9.66 8 -10.32 8 -11 8 C-11.25 5.6875 -11.25 5.6875 -11 3 C-7.85004477 -0.65394807 -4.57703263 -0.26405958 0 0 Z " fill="#717781" transform="translate(515,481)"/>
<path d="M0 0 C0 0.99 0 1.98 0 3 C-3.19306305 4.06435435 -5.64443996 4.20065353 -9 4.25 C-10.5778125 4.28867188 -10.5778125 4.28867188 -12.1875 4.328125 C-15 4 -15 4 -16.875 2.484375 C-17.24625 1.99453125 -17.6175 1.5046875 -18 1 C-15.36 1 -12.72 1 -10 1 C-10 1.66 -10 2.32 -10 3 C-5.05 1.515 -5.05 1.515 0 0 Z " fill="#6C7C85" transform="translate(105,244)"/>
<path d="M0 0 C1.02018585 2.6686569 1.06982104 3.80064256 0.109375 6.54296875 C-0.33921875 7.41566406 -0.7878125 8.28835937 -1.25 9.1875 C-1.90742188 10.50814453 -1.90742188 10.50814453 -2.578125 11.85546875 C-4 14 -4 14 -7 15 C-5.45454854 9.52067211 -2.84456788 4.88570819 0 0 Z " fill="#B93D49" transform="translate(191,129)"/>
<path d="M0 0 C0.33 0 0.66 0 1 0 C1 3.3 1 6.6 1 10 C1.66 10 2.32 10 3 10 C4.38938077 11.96147874 5.7260411 13.96166576 7 16 C6.01 16.33 5.02 16.66 4 17 C-0.67289916 11.59696035 -0.44534366 6.95230941 0 0 Z " fill="#BD4B56" transform="translate(165,178)"/>
<path d="M0 0 C0.84119973 2.39957614 1.11193544 3.64922558 0.328125 6.10546875 C-0.02765625 6.79253906 -0.3834375 7.47960937 -0.75 8.1875 C-1.26820313 9.22970703 -1.26820313 9.22970703 -1.796875 10.29296875 C-3 12 -3 12 -6 13 C-4.31326082 8.50202887 -2.18326108 4.27113698 0 0 Z " fill="#B83E4A" transform="translate(181,148)"/>
<path d="M0 0 C4.08378283 0.74250597 8.01939223 1.82923301 12 3 C12 3.33 12 3.66 12 4 C10.5629191 4.05422947 9.12524538 4.09289723 7.6875 4.125 C6.88699219 4.14820313 6.08648437 4.17140625 5.26171875 4.1953125 C3 4 3 4 0 2 C0 1.34 0 0.68 0 0 Z " fill="#B12A39" transform="translate(448,160)"/>
<path d="M0 0 C0.66 0 1.32 0 2 0 C0.77782954 4.04256383 -0.62754296 7.49288959 -3 11 C-3.33 11 -3.66 11 -4 11 C-4 9.35 -4 7.7 -4 6 C-3.34 6 -2.68 6 -2 6 C-2 4.68 -2 3.36 -2 2 C-1.34 2 -0.68 2 0 2 C0 1.34 0 0.68 0 0 Z " fill="#B3232A" transform="translate(500,96)"/>
<path d="M0 0 C1.31571603 0.2547514 2.62760376 0.52934141 3.9375 0.8125 C4.66839844 0.96332031 5.39929688 1.11414063 6.15234375 1.26953125 C6.76207031 1.51058594 7.37179687 1.75164062 8 2 C8.33 2.99 8.66 3.98 9 5 C6.36 4.67 3.72 4.34 1 4 C0.67 2.68 0.34 1.36 0 0 Z " fill="#7E838B" transform="translate(504,504)"/>
<path d="M0 0 C0.33 0.66 0.66 1.32 1 2 C1.99 1.67 2.98 1.34 4 1 C3.34 2.98 2.68 4.96 2 7 C0.68 7 -0.64 7 -2 7 C-1.34 4.69 -0.68 2.38 0 0 Z " fill="#838A95" transform="translate(168,502)"/>
<path d="M0 0 C0.66 0.33 1.32 0.66 2 1 C-0.46153846 5.8 -0.46153846 5.8 -3.1875 6.8125 C-3.785625 6.874375 -4.38375 6.93625 -5 7 C-3.70700306 4.11562221 -2.34058637 2.12780579 0 0 Z " fill="#C03743" transform="translate(219,79)"/>
<path d="M0 0 C0.66 0 1.32 0 2 0 C1.67 2.64 1.34 5.28 1 8 C0.01 8.33 -0.98 8.66 -2 9 C-1.51421457 5.87709365 -1.0013988 3.00419641 0 0 Z " fill="#656E7C" transform="translate(171,495)"/>
<path d="M0 0 C0.66 0 1.32 0 2 0 C3.1577506 3.47325181 3.06866652 6.36067448 3 10 C2.34 10 1.68 10 1 10 C0.67 6.7 0.34 3.4 0 0 Z " fill="#5A646F" transform="translate(378,488)"/>
<path d="M0 0 C1.093125 0.226875 2.18625 0.45375 3.3125 0.6875 C2.6525 2.0075 1.9925 3.3275 1.3125 4.6875 C0.9825 4.3575 0.6525 4.0275 0.3125 3.6875 C-2.01567964 3.31989269 -4.3493385 2.98508419 -6.6875 2.6875 C-4.58035839 -0.41123767 -3.86755884 -0.32775922 0 0 Z " fill="#798085" transform="translate(247.6875,481.3125)"/>
<path d="M0 0 C0.66 0 1.32 0 2 0 C0.66511872 3.59391114 -0.96022723 6.75490696 -3 10 C-3.66 9.67 -4.32 9.34 -5 9 C-3.35 6.03 -1.7 3.06 0 0 Z " fill="#838D95" transform="translate(115,145)"/>
<path d="M0 0 C0.66 0 1.32 0 2 0 C1.37344168 2.92393881 0.5838192 5.44829129 -1 8 C-1.99 8.33 -2.98 8.66 -4 9 C-2.80100302 5.9168649 -1.52299523 2.93720508 0 0 Z " fill="#B33640" transform="translate(208,96)"/>
<path d="M0 0 C0.99 0.33 1.98 0.66 3 1 C3 3.31 3 5.62 3 8 C2.34 7.67 1.68 7.34 1 7 C0.59270772 4.67843403 0.25561323 2.3431213 0 0 Z " fill="#60686E" transform="translate(250,483)"/>
<path d="M0 0 C1.2065625 0.0309375 1.2065625 0.0309375 2.4375 0.0625 C2.4375 0.7225 2.4375 1.3825 2.4375 2.0625 C-0.77701269 3.66975635 -3.99862536 3.11998185 -7.5625 3.0625 C-6.923125 2.753125 -6.28375 2.44375 -5.625 2.125 C-1.57454819 0.03840361 -1.57454819 0.03840361 0 0 Z " fill="#6D7D87" transform="translate(474.5625,243.9375)"/>
<path d="M0 0 C0.33 0.99 0.66 1.98 1 3 C-1.97 5.475 -1.97 5.475 -5 8 C-4.45773019 4.20411134 -2.79872437 2.52788007 0 0 Z " fill="#7D8E96" transform="translate(506,225)"/>
<path d="M0 0 C0.66 0 1.32 0 2 0 C5.125 6.625 5.125 6.625 4 10 C0 3.375 0 3.375 0 0 Z " fill="#B42F3D" transform="translate(430,129)"/>
<path d="M0 0 C0.33 0 0.66 0 1 0 C0.50769231 6.52307692 0.50769231 6.52307692 -2.0625 8.9375 C-2.701875 9.288125 -3.34125 9.63875 -4 10 C-2.8905928 6.51329166 -1.73662334 3.22515763 0 0 Z " fill="#B43946" transform="translate(198,115)"/>
<path d="M0 0 C0.66 0.33 1.32 0.66 2 1 C-2.39453125 5.00390625 -2.39453125 5.00390625 -4 6 C-4.99 5.67 -5.98 5.34 -7 5 C-4.69 3.35 -2.38 1.7 0 0 Z " fill="#6E828B" transform="translate(499,232)"/>
<path d="M0 0 C0.66 0.99 1.32 1.98 2 3 C1.01 4.98 0.02 6.96 -1 9 C-1.66 8.67 -2.32 8.34 -3 8 C-1.125 2.25 -1.125 2.25 0 0 Z " fill="#BB424F" transform="translate(174,161)"/>
<path d="M0 0 C0.66 0.33 1.32 0.66 2 1 C-1.465 3.97 -1.465 3.97 -5 7 C-3.92643531 2.70574125 -3.4915227 2.25259529 0 0 Z " fill="#818D94" transform="translate(574,16)"/>
</svg>
